<?xml version="1.0" standalone="no"?><!DOCTYPE svg PUBLIC "-//W3C//DTD SVG 1.1//EN" "http://www.w3.org/Graphics/SVG/1.1/DTD/svg11.dtd"><svg t="1721465206300" class="icon" viewBox="0 0 1024 1024" version="1.1" xmlns="http://www.w3.org/2000/svg" p-id="6093" xmlns:xlink="http://www.w3.org/1999/xlink" width="200" height="200"><path d="M151.466667 960c-17.066667 0-32-4.266667-46.933334-12.8-29.866667-17.066667-49.066667-49.066667-49.066666-83.2v-661.333333C55.466667 125.866667 117.333333 64 194.133333 64h497.066667c76.8 0 138.666667 61.866667 138.666667 138.666667V490.666667c0 17.066667-14.933333 32-32 32s-32-14.933333-32-32V202.666667c0-40.533333-34.133333-74.666667-74.666667-74.666667H194.133333C153.6 128 119.466667 162.133333 119.466667 202.666667v661.333333c0 10.666667 6.4 21.333333 17.066666 27.733333 10.666667 6.4 21.333333 6.4 32 0L426.666667 736c14.933333-8.533333 34.133333-4.266667 44.8 10.666667 8.533333 14.933333 4.266667 34.133333-10.666667 44.8L200.533333 947.2c-14.933333 8.533333-32 12.8-49.066666 12.8z" fill="#8a8a8a" p-id="6094"></path><path d="M614.4 330.666667h-341.333333c-17.066667 0-32-14.933333-32-32s14.933333-32 32-32h341.333333c17.066667 0 32 14.933333 32 32s-14.933333 32-32 32zM936.533333 819.2h-277.333333c-17.066667 0-32-14.933333-32-32s14.933333-32 32-32h277.333333c17.066667 0 32 14.933333 32 32s-14.933333 32-32 32z" fill="#8a8a8a" p-id="6095"></path><path d="M797.866667 957.866667c-17.066667 0-32-14.933333-32-32v-277.333334c0-17.066667 14.933333-32 32-32s32 14.933333 32 32v277.333334c0 17.066667-14.933333 32-32 32z" fill="#8a8a8a" p-id="6096"></path></svg>