<?xml version="1.0" standalone="no"?><!DOCTYPE svg PUBLIC "-//W3C//DTD SVG 1.1//EN" "http://www.w3.org/Graphics/SVG/1.1/DTD/svg11.dtd"><svg t="1721223929901" class="icon" viewBox="0 0 1024 1024" version="1.1" xmlns="http://www.w3.org/2000/svg" p-id="13095" xmlns:xlink="http://www.w3.org/1999/xlink" width="200" height="200"><path d="M70.250469 1012.112097a33.439728 33.439728 0 0 1-6.239949-0.607995 26.751783 26.751783 0 0 1-3.039975-0.767994 23.199812 23.199812 0 0 1-5.759953-2.399981 25.599792 25.599792 0 0 1-2.719978-1.599987 48.959602 48.959602 0 0 1-2.55998-1.887984 57.82353 57.82353 0 0 1-4.479963-4.431964 26.031788 26.031788 0 0 1-1.759986-2.51198 15.791872 15.791872 0 0 1-1.599987-2.703978 29.279762 29.279762 0 0 1-1.439988-2.831977 15.135877 15.135877 0 0 1-0.959992-2.959976 30.079756 30.079756 0 0 1-1.27999-12.431899 30.431753 30.431753 0 0 1 1.27999-6.14395 15.135877 15.135877 0 0 1 0.959992-2.959976c0.431996-0.959992 0.911993-1.919984 1.439988-2.831977a15.791872 15.791872 0 0 1 1.599987-2.703978c0.527996-0.863993 1.119991-1.711986 1.759986-2.51198a75.07139 75.07139 0 0 1 4.479963-4.447963 48.959602 48.959602 0 0 1 2.55998-1.871985 25.599792 25.599792 0 0 1 2.719978-1.599987 23.455809 23.455809 0 0 1 5.759953-2.399981c0.959992-0.319997 1.967984-0.559995 3.039975-0.767993a33.439728 33.439728 0 0 1 6.239949-0.607996h286.557672c-5.439956-4.783961-10.671913-9.743921-15.679873-14.879879a327.837336 327.837336 0 0 1-14.559881-15.99987 343.789207 343.789207 0 0 1-13.279892-17.023861c-4.159966-5.823953-8.159934-11.807904-11.999903-17.935855a384.108879 384.108879 0 0 1-10.719913-18.783847c-3.311973-6.399948-6.399948-12.895895-9.279924-19.519841a333.437291 333.437291 0 0 1-7.679938-20.127837 236.078082 236.078082 0 0 1-6.399948-20.671832 289.021652 289.021652 0 0 1-9.599922-58.815522 292.749621 292.749621 0 0 1 2.239982-59.583516c2.671978-19.071845 7.087942-37.711694 13.279892-55.935545a295.3896 295.3896 0 0 1 23.999805-52.319575c9.599922-16.687864 20.687832-32.319737 33.27973-46.84762a297.757581 297.757581 0 0 1 41.919659-39.551678c2.031983-1.695986 4.207966-3.359973 6.559947-4.95996-2.239982-8.799929-3.359973-17.759856-3.359973-26.847782a101.807173 101.807173 0 0 1 2.879977-25.375794c2.031983-8.351932 5.007959-16.319867 8.959927-23.967805l-100.639183-100.687182a196.062407 196.062407 0 0 1-6.399948-6.975943c-0.959992-1.21599-1.919984-2.44798-2.879976-3.71197a122.671003 122.671003 0 0 0-2.719978-3.839969 64.063479 64.063479 0 0 1-2.399981-3.999967 67.231454 67.231454 0 0 1-4.479963-8.303933l-1.919985-4.319965a67.263453 67.263453 0 0 1-3.199974-8.847928 1220.726082 1220.726082 0 0 1-1.279989-4.543963l-0.959992-4.607963a69.631434 69.631434 0 0 1-0.799994-4.639962l-0.639995-4.671962-0.319997-4.703962a69.103439 69.103439 0 0 1 0-9.423923l0.319997-4.687962 0.639995-4.671962c0.207998-1.567987 0.479996-3.103975 0.799994-4.639962l0.959992-4.607963 1.279989-4.543963a67.359453 67.359453 0 0 1 3.199974-8.863928l1.919985-4.319965a65.807465 65.807465 0 0 1 4.479963-8.303932c0.751994-1.343989 1.551987-2.671978 2.399981-3.967968 0.959992-1.311989 1.871985-2.591979 2.719978-3.855969 0.959992-1.27999 1.919984-2.49598 2.879976-3.71197a223.98218 223.98218 0 0 1 6.399948-6.991943l78.87936-78.879359a63.471484 63.471484 0 0 1 7.039942-6.319949 64.639475 64.639475 0 0 1 3.67997-2.895976c1.27999-0.943992 2.559979-1.839985 3.839969-2.719978a66.239462 66.239462 0 0 1 3.999968-2.527979 63.807482 63.807482 0 0 1 8.319932-4.431964 69.279437 69.279437 0 0 1 4.319965-1.919985c1.391989-0.591995 2.831977-1.151991 4.319965-1.695986a105.567142 105.567142 0 0 1 8.959927-2.719978c1.599987-0.383997 3.151974-0.735994 4.639962-1.039991a116.415054 116.415054 0 0 1 9.279925-1.375989 100.735182 100.735182 0 0 1 18.879847 0c1.599987 0.159999 3.151974 0.335997 4.639962 0.575995 1.599987 0.223998 3.151974 0.479996 4.639962 0.799994a77.903367 77.903367 0 0 1 9.119926 2.287981 113.855075 113.855075 0 0 1 8.959927 3.167974c1.487988 0.607995 2.927976 1.24799 4.319965 1.919985a116.86305 116.86305 0 0 1 8.319933 4.431964l3.999967 2.527979c1.27999 0.879993 2.559979 1.775986 3.839969 2.719978 1.27999 0.927992 2.51198 1.903985 3.67997 2.879977a165.342657 165.342657 0 0 1 7.039943 6.335948l347.197179 347.197179c1.071991 1.119991 2.127983 2.255982 3.199974 3.423972 1.071991 1.151991 2.079983 2.351981 3.039975 3.567971 0.959992 1.21599 1.919984 2.44798 2.879977 3.71197 0.959992 1.26399 1.871985 2.543979 2.719978 3.839969 0.847993 1.311989 1.711986 2.639979 2.559979 3.999967a367.085017 367.085017 0 0 1 4.479963 8.303933l1.919985 4.303965 1.599987 4.399964c0.527996 1.471988 1.007992 2.959976 1.439988 4.479964 0.527996 1.487988 0.959992 3.007976 1.27999 4.527963a69.151438 69.151438 0 0 1 2.39998 13.919887c0.207998 1.567987 0.367997 3.119975 0.479996 4.687962v9.423923a70.383428 70.383428 0 0 1-0.479996 4.703962 68.479444 68.479444 0 0 1-2.39998 13.919887c-0.319997 1.519988-0.751994 3.039975-1.27999 4.527963a67.359453 67.359453 0 0 1-1.439988 4.479964l-1.599987 4.399964-1.919985 4.319965a422.220569 422.220569 0 0 1-4.479963 8.287933c-0.847993 1.359989-1.711986 2.687978-2.559979 3.999967-0.847993 1.27999-1.759986 2.575979-2.719978 3.839969-0.959992 1.26399-1.919984 2.49598-2.879977 3.71197-0.959992 1.21599-1.967984 2.399981-3.039975 3.567971-1.071991 1.167991-2.127983 2.303981-3.199974 3.407972l-79.039358 78.895359c-1.071991 1.119991-2.191982 2.191982-3.359973 3.247974a167.998635 167.998635 0 0 1-3.519971 3.087975l-3.67997 2.895976c-1.27999 0.927992-2.559979 1.839985-3.839969 2.719978l-3.999967 2.511979a129.054951 129.054951 0 0 1-8.319933 4.447964l-4.319965 1.903985a113.599077 113.599077 0 0 1-13.439891 4.431964c-1.487988 0.383997-3.039975 0.719994-4.639962 1.023992-1.487988 0.319997-3.039975 0.575995-4.639962 0.799993a107.967123 107.967123 0 0 1-14.079886 1.039992 96.751214 96.751214 0 0 1-32.319737-5.599955 67.567451 67.567451 0 0 1-4.319965-1.695986 70.031431 70.031431 0 0 1-4.319965-1.919985 71.279421 71.279421 0 0 1-8.319932-4.431964 66.959456 66.959456 0 0 1-3.999968-2.511979 143.454834 143.454834 0 0 1-3.839969-2.719978 63.583483 63.583483 0 0 1-3.67997-2.895976 68.591443 68.591443 0 0 1-7.039943-6.335949l-101.279177-101.247177a104.751149 104.751149 0 0 1-23.999805 8.959927c-8.319932 1.999984-16.751864 3.007976-25.279794 2.991976-5.759953 0-11.471907-0.431996-17.119861-1.34399a111.679093 111.679093 0 0 1-16.799864-4.079966 108.943115 108.943115 0 0 1-15.839871-6.671946 118.687036 118.687036 0 0 1-14.559882-9.119926c-4.367965 3.359973-8.687929 6.911944-12.959894 10.607914-4.159966 3.71197-8.207933 7.551939-12.159902 11.567906-3.951968 3.999968-7.679938 8.127934-11.199909 12.415899a230.302129 230.302129 0 0 0-19.839838 27.167779 245.630004 245.630004 0 0 0-21.439826 45.439631c-1.807985 5.311957-3.407972 10.671913-4.799961 16.079869-1.487988 5.423956-2.719978 10.879912-3.67997 16.383867-1.071991 5.503955-1.919984 11.03991-2.559979 16.607865a295.197602 295.197602 0 0 0-1.119991 16.751864 220.878205 220.878205 0 0 0 3.839968 50.127593c0.959992 5.503955 2.191982 10.959911 3.679971 16.367867 1.391989 5.087959 2.927976 10.111918 4.639962 15.087877 1.807985 4.97596 3.72797 9.88792 5.759953 14.719881 2.127983 4.847961 4.367965 9.615922 6.719945 14.303883 2.44798 4.687962 5.007959 9.279925 7.679938 13.791888 2.767978 4.511963 5.647954 8.927927 8.63993 13.231893 3.087975 4.319965 6.287949 8.511931 9.599922 12.591898 3.311973 4.095967 6.767945 8.063934 10.399915 11.903903a248.797979 248.797979 0 0 0 23.039813 21.519825c4.159966 3.311973 8.367932 6.479947 12.639897 9.503923 4.367965 3.023975 8.799929 5.887952 13.279893 8.60793a216.318242 216.318242 0 0 0 28.159771 14.367883c4.799961 2.079983 9.711921 3.967968 14.71988 5.695954 4.91196 1.727986 9.919919 3.279973 15.039878 4.639962 5.119958 1.391989 10.239917 2.575979 15.359875 3.599971H910.243644a35.359713 35.359713 0 0 1 6.23995 0.607995 26.783782 26.783782 0 0 1 5.919952 1.839985c1.071991 0.399997 2.031983 0.847993 2.879976 1.343989 0.959992 0.479996 1.871985 1.023992 2.719978 1.599987 0.847993 0.591995 1.711986 1.21599 2.559979 1.871985a56.415542 56.415542 0 0 1 4.479964 4.447964c0.639995 0.799994 1.23199 1.647987 1.759986 2.511979a15.679873 15.679873 0 0 1 1.599987 2.703978c0.527996 0.911993 1.007992 1.871985 1.439988 2.831977l0.959992 2.959976a29.727758 29.727758 0 0 1 1.439988 9.279925 30.623751 30.623751 0 0 1-1.439988 9.295924l-0.959992 2.959976c-0.431996 0.959992-0.911993 1.919984-1.439988 2.831977a15.551874 15.551874 0 0 1-1.599987 2.687978 16.191868 16.191868 0 0 1-1.919985 2.52798c-0.639995 0.799994-1.327989 1.599987-2.079983 2.335981-0.751994 0.735994-1.487988 1.439988-2.239982 2.095983-0.847993 0.671995-1.711986 1.295989-2.559979 1.871985-0.847993 0.591995-1.759986 1.119991-2.719978 1.615987-0.847993 0.495996-1.807985 0.959992-2.879976 1.343989a26.783782 26.783782 0 0 1-5.919952 1.823985 35.359713 35.359713 0 0 1-6.23995 0.607995L70.250469 1012.112097zM679.205522 610.307361c0.751994 0.751994 1.487988 1.439988 2.239981 2.111983 0.847993 0.671995 1.711986 1.27999 2.55998 1.871985 0.847993 0.575995 1.759986 1.119991 2.719977 1.599987a40.031675 40.031675 0 0 0 5.759954 2.39998c1.071991 0.319997 2.079983 0.575995 3.039975 0.783994a34.927716 34.927716 0 0 0 6.239949 0.607995 32.959732 32.959732 0 0 0 6.23995-0.607995 26.879782 26.879782 0 0 0 3.039975-0.767994 27.007781 27.007781 0 0 0 5.759953-2.39998c0.959992-0.495996 1.871985-1.039992 2.719978-1.615987a50.559589 50.559589 0 0 0 2.559979-1.871985c0.847993-0.655995 1.647987-1.359989 2.399981-2.111983l78.879359-78.879359a25.599792 25.599792 0 0 0 2.079983-2.335981c0.639995-0.799994 1.27999-1.647987 1.919984-2.527979 0.527996-0.863993 1.071991-1.759986 1.599987-2.687978l1.27999-2.831977c0.431996-0.959992 0.799994-1.951984 1.119991-2.959976a14.959878 14.959878 0 0 0 0.639995-3.039976 30.831749 30.831749 0 0 0 0-12.479898 384.268878 384.268878 0 0 0-0.639995-3.055976 29.55176 29.55176 0 0 0-1.119991-2.959975c-0.431996-0.959992-0.847993-1.919984-1.27999-2.831977a110.159105 110.159105 0 0 0-1.599987-2.703978 90.143268 90.143268 0 0 0-1.919984-2.51198 25.599792 25.599792 0 0 0-2.079983-2.335981l-347.197179-347.197179a26.639784 26.639784 0 0 0-2.399981-2.095983c-0.751994-0.671995-1.599987-1.295989-2.559979-1.871985a40.927667 40.927667 0 0 0-2.559979-1.615987c-0.959992-0.495996-1.919984-0.959992-2.879977-1.343989a27.279778 27.279778 0 0 0-3.039975-1.071991 26.735783 26.735783 0 0 0-3.039975-0.751994 33.343729 33.343729 0 0 0-12.479899 0c-0.959992 0.207998-1.967984 0.447996-3.039975 0.751994a35.007716 35.007716 0 0 0-11.039911 5.903952 55.967545 55.967545 0 0 0-2.239981 2.095983l-78.879359 78.895359a26.079788 26.079788 0 0 0-2.079984 2.335981c-0.751994 0.799994-1.391989 1.647987-1.919984 2.527979a15.423875 15.423875 0 0 0-1.599987 2.687979 29.711759 29.711759 0 0 0-1.439988 2.831976l-0.959992 2.959976a30.015756 30.015756 0 0 0-1.439989 9.279925 30.687751 30.687751 0 0 0 1.439989 9.311924l0.959992 2.943976c0.431996 0.975992 0.911993 1.919984 1.439988 2.847977 0.431996 0.927992 0.959992 1.823985 1.599987 2.687978 0.527996 0.879993 1.167991 1.711986 1.919984 2.52798 0.639995 0.799994 1.327989 1.599987 2.079984 2.319981l100.159186 100.271185a108.207121 108.207121 0 0 1 51.199584-12.879895 111.279096 111.279096 0 0 1 15.839871 1.18399c1.711986 0.271998 3.407972 0.575995 5.119958 0.911993a92.031252 92.031252 0 0 1 10.239917 2.575979c1.711986 0.511996 3.407972 1.071991 5.119959 1.663987 1.599987 0.607995 3.247974 1.23199 4.959959 1.919984a126.270974 126.270974 0 0 1 9.599922 4.527963c1.487988 0.831993 2.991976 1.695986 4.479964 2.607979 1.599987 0.895993 3.087975 1.855985 4.479964 2.831977 1.487988 0.975992 2.927976 1.999984 4.319964 3.039975 1.487988 1.055991 2.879977 2.143983 4.159967 3.263974 1.391989 1.119991 2.719978 2.271982 3.999967 3.455972 1.391989 1.18399 2.671978 2.399981 3.839969 3.64797 1.27999 1.24799 2.51198 2.527979 3.67997 3.839969 1.167991 1.311989 2.351981 2.639979 3.519971 3.999967l3.199974 4.175966c1.071991 1.423988 2.079983 2.879977 3.039976 4.319965 1.071991 1.487988 2.031983 2.975976 2.879976 4.479964 0.959992 1.519988 1.807985 3.039975 2.55998 4.607962 0.847993 1.551987 1.647987 3.135975 2.39998 4.735962l2.239982 4.831961 1.919984 4.94396 1.599987 5.023959a85.775303 85.775303 0 0 1 2.559979 10.255916l0.959993 5.215958 0.639994 5.263957c0.207998 1.759986 0.319997 3.519971 0.319998 5.279957a109.711109 109.711109 0 0 1-3.039975 31.647743c-2.239982 8.63993-5.439956 16.895863-9.599922 24.735799l100.799181 100.799181z m60.319509 170.558614a83.487322 83.487322 0 0 1-2.559979-2.767977 34.031723 34.031723 0 0 1-2.079983-2.991976 21.599825 21.599825 0 0 1-1.919984-3.199974 21.823823 21.823823 0 0 1-1.599987-3.359972 21.775823 21.775823 0 0 1-1.27999-3.519972 21.871822 21.871822 0 0 1-0.959992-3.599971 41.183665 41.183665 0 0 1-0.639995-7.407939 43.02365 43.02365 0 0 1 0.639995-7.39194c0.207998-1.21599 0.527996-2.43198 0.959992-3.615971 0.319997-1.18399 0.751994-2.351981 1.27999-3.519971 0.431996-1.119991 0.959992-2.255982 1.599987-3.359973a21.599825 21.599825 0 0 1 1.919984-3.199974c0.639995-1.023992 1.327989-2.015984 2.079983-2.975976 0.847993-0.959992 1.711986-1.887985 2.559979-2.767977L920.963557 545.667886a71.679418 71.679418 0 0 1 5.759953-4.703961c1.071991-0.703994 2.127983-1.343989 3.199974-1.919985 1.167991-0.591995 2.287981-1.119991 3.359973-1.599987a34.159722 34.159722 0 0 1 7.199942-2.159982 38.943684 38.943684 0 0 1 11.03991-0.543996c1.27999 0.127999 2.51198 0.319997 3.67997 0.559996a34.143723 34.143723 0 0 1 7.199942 2.143982c1.167991 0.479996 2.287981 1.007992 3.359972 1.599987 1.071991 0.575995 2.127983 1.21599 3.199974 1.919985a32.959732 32.959732 0 0 1 5.759953 4.703961c0.847993 0.879993 1.711986 1.807985 2.55998 2.767978 0.751994 0.959992 1.439988 1.951984 2.079983 2.991976 0.751994 1.023992 1.391989 2.079983 1.919984 3.199974 0.639995 1.087991 1.167991 2.207982 1.599987 3.359972 0.527996 1.135991 0.959992 2.303981 1.27999 3.503972 0.431996 1.18399 0.751994 2.399981 0.959992 3.599971a42.255657 42.255657 0 0 1 0.479996 11.119909 42.255657 42.255657 0 0 1-0.479996 3.67997 22.15982 22.15982 0 0 1-0.959992 3.615971c-0.319997 1.18399-0.751994 2.351981-1.27999 3.519971-0.431996 1.119991-0.959992 2.255982-1.599987 3.359973a21.263827 21.263827 0 0 1-1.919984 3.199974c-0.639995 1.023992-1.327989 2.015984-2.079983 2.975976-0.847993 0.959992-1.711986 1.871985-2.55998 2.751978L793.124596 780.833976c-1.711986 1.759986-3.63197 3.359973-5.759953 4.735961a34.719718 34.719718 0 0 1-6.559947 3.519972 37.631694 37.631694 0 0 1-21.919822 2.159982c-2.44798-0.511996-4.799961-1.23199-7.039943-2.175982a34.911716 34.911716 0 0 1-6.559946-3.519972 43.647645 43.647645 0 0 1-5.759954-4.735961v0.016zM209.449338 153.639072a22.319819 22.319819 0 0 1-2.559979-2.767978 106.879132 106.879132 0 0 1-2.239982-2.991976 137.118886 137.118886 0 0 1-1.919984-3.199974 206.878319 206.878319 0 0 1-1.599987-3.359972 297.357584 297.357584 0 0 1-1.27999-3.519972 41.695661 41.695661 0 0 1-0.799993-3.59997 1009.2398 1009.2398 0 0 1-0.639995-3.67997 43.03965 43.03965 0 0 1 0-7.43994l0.639995-3.67997c0.207998-1.21599 0.479996-2.43198 0.799993-3.615971l1.27999-3.519971 1.599987-3.359973 1.919984-3.199974c0.751994-1.023992 1.487988-2.015984 2.239982-2.975976 0.751994-0.959992 1.599987-1.887985 2.559979-2.767977l76.799376-76.799376A32.735734 32.735734 0 0 1 292.008668 18.47217c0.959992-0.703994 2.031983-1.327989 3.199974-1.919984 1.071991-0.591995 2.191982-1.119991 3.359972-1.599987a38.575687 38.575687 0 0 1 10.719913-2.719978 38.975683 38.975683 0 0 1 11.199909 0.575995 38.447688 38.447688 0 0 1 13.59989 5.663954 33.663726 33.663726 0 0 1 5.759953 4.703962c0.847993 0.879993 1.711986 1.807985 2.559979 2.767977 0.751994 0.959992 1.487988 1.951984 2.239982 2.991976 0.639995 1.023992 1.23199 2.079983 1.759986 3.199974 0.639995 1.087991 1.167991 2.207982 1.599987 3.359973 0.527996 1.151991 0.959992 2.319981 1.279989 3.503971 0.431996 1.18399 0.751994 2.399981 0.959992 3.615971a42.991651 42.991651 0 0 1 0 14.799879 21.567825 21.567825 0 0 1-0.959992 3.615971c-0.319997 1.18399-0.751994 2.351981-1.279989 3.503972-0.431996 1.151991-0.959992 2.271982-1.599987 3.359972-0.527996 1.103991-1.119991 2.159982-1.759986 3.199974a107.151129 107.151129 0 0 1-2.239982 2.991976c-0.847993 0.959992-1.711986 1.871985-2.559979 2.751978l-76.799376 76.799376a32.799734 32.799734 0 0 1-5.759953 4.735961 34.719718 34.719718 0 0 1-6.559947 3.519972 38.415688 38.415688 0 0 1-21.919822 2.143982c-2.44798-0.511996-4.799961-1.23199-7.039943-2.191982a34.895716 34.895716 0 0 1-6.559946-3.519971 32.911733 32.911733 0 0 1-5.759954-4.735962v0.048z" fill="#787878" p-id="13096"></path></svg>