<?xml version="1.0" standalone="no"?><!DOCTYPE svg PUBLIC "-//W3C//DTD SVG 1.1//EN" "http://www.w3.org/Graphics/SVG/1.1/DTD/svg11.dtd"><svg t="1721223822076" class="icon" viewBox="0 0 1024 1024" version="1.1" xmlns="http://www.w3.org/2000/svg" p-id="10440" xmlns:xlink="http://www.w3.org/1999/xlink" width="200" height="200"><path d="M506.624 566.208c-378.048-2.56-403.904-75.52-403.904-75.52l-1.28 14.656-0.576 8.064-0.192 9.664-0.256 11.328 0.384 12.8c0.064 9.024 1.344 18.944 2.24 29.952a407.68 407.68 0 0 0 32.064 116.8l2.368 5.504 2.688 5.376 5.376 11.008c1.792 3.776 4.032 7.296 6.016 11.072 2.048 3.712 4.032 7.424 6.272 11.136l6.784 11.136 3.584 5.504 3.776 5.44 7.744 11.072c2.688 3.712 5.504 7.232 8.32 10.944 5.376 7.424 11.84 14.208 17.92 21.44 3.2 3.52 6.528 6.912 9.792 10.432l4.992 5.184 5.248 5.12 10.624 10.048 11.264 9.664c3.712 3.264 7.744 6.336 11.712 9.408 4.032 2.944 7.872 6.336 12.096 9.152 16.32 11.968 34.176 22.656 52.8 32.448 18.688 9.664 38.464 17.792 58.88 24.768 20.608 6.656 41.728 11.84 63.168 15.36l16.192 2.176 4.096 0.576 4.16 0.384 8.512 0.64 8.448 0.768 2.112 0.128 1.984 0.064 3.84 0.192 15.296 0.384 17.152-0.512c5.504 0 10.944-0.576 16.448-1.024 10.944-0.64 21.76-2.304 32.512-3.776 10.752-1.984 21.568-3.776 32.064-6.592l7.872-1.984 3.904-1.024 3.968-1.216 15.488-4.672a419.456 419.456 0 0 0 111.68-57.216c4.16-2.816 8.064-6.144 12.032-9.216 4.032-3.072 8-6.08 11.712-9.344l11.328-9.6 10.624-10.176 5.184-4.992 4.992-5.248c3.328-3.52 6.656-6.848 9.792-10.368 6.144-7.232 12.48-14.08 17.92-21.44 2.816-3.84 5.632-7.296 8.32-11.008l7.744-11.072 3.84-5.44 3.456-5.568 6.912-11.072c2.24-3.648 4.224-7.424 6.272-11.136s4.224-7.296 5.952-11.008l5.568-11.008c0.832-1.856 1.728-3.712 2.624-5.376l2.368-5.568a413.952 413.952 0 0 0 32-116.736c1.088-10.944 2.176-20.864 2.24-29.952l0.512-12.8-0.32-11.328-0.256-9.664-0.448-8-1.344-14.656s-61.952 74.24-414.656 75.52z m311.232 99.392c-1.152 2.88-2.432 7.104-4.8 12.288l-3.904 8.768c-1.472 3.072-3.328 6.4-5.184 9.92-1.792 3.584-4.032 7.104-6.272 11.136-2.304 3.904-4.864 7.744-7.552 11.904-2.88 4.288-6.016 8.512-9.088 12.672-3.328 4.16-6.656 8.576-10.368 12.928a286.72 286.72 0 0 1-39.552 38.336c-4.992 4.096-10.24 7.936-15.616 11.84-10.816 7.552-22.4 14.528-34.24 20.8a296.576 296.576 0 0 1-36.736 16.192l-9.344 3.2c-3.136 1.152-6.4 1.92-9.408 2.88a255.488 255.488 0 0 1-54.4 10.176c-2.88 0.32-5.696 0.448-8.448 0.576l-8.256 0.448c-5.44 0-10.624 0.064-15.616-0.128-4.992-0.384-9.728-0.384-14.272-0.896-4.544-0.576-8.832-0.896-12.8-1.408l-11.136-1.856-9.344-1.984c-2.56-0.512-4.992-1.216-7.424-1.92l-5.44-1.472-4.48-1.408 4.736-0.384c3.072-0.256 7.552-0.384 13.184-0.896l9.344-0.768 10.944-1.152a433.28 433.28 0 0 0 40.192-6.016c4.928-1.216 10.112-1.856 15.296-3.264a437.12 437.12 0 0 0 32.448-8.896c5.44-1.92 11.136-3.584 16.704-5.76a397.12 397.12 0 0 0 50.24-22.016c10.88-5.76 21.44-12.032 31.808-18.432 4.992-3.456 10.112-6.592 14.976-10.048 4.864-3.328 9.536-6.912 14.272-10.304a437.12 437.12 0 0 0 25.984-21.312c8.128-7.104 15.424-14.208 22.208-20.736l9.472-9.664 8.512-9.088c2.624-2.816 4.992-5.632 7.232-8.128l6.144-6.848c3.776-4.224 6.592-7.744 8.576-10.112l3.072-3.584-1.664 4.416zM546.816 427.648c291.072-198.912-97.088-271.744 53.12-426.496-133.696 22.08-108.032 173.184-80.576 200.832 27.456 27.584 144.64 67.2 27.456 225.664z m-416.576 19.712v-0.192 0.192zM979.2 882.24l-0.128-1.856c-0.128-1.152-0.384-2.24-0.576-3.392a50.24 50.24 0 0 0-11.328-22.592 84.672 84.672 0 0 0-16.128-14.272 162.56 162.56 0 0 0-32.384-17.152 348.224 348.224 0 0 0-51.968-16.256c-5.824-1.344-11.648-2.688-17.408-3.904-4.736-0.896-8.448-1.408-10.816-1.984l-3.776-0.64 13.888 5.12c9.088 3.328 22.272 8.448 38.528 15.808 8.896 3.968 17.536 8.384 25.984 13.248 9.152 5.248 18.688 11.392 27.392 19.072 4.224 3.776 8.256 8 11.392 12.608a28.8 28.8 0 0 1 5.504 15.872v1.024l-0.064 0.32-0.256 2.496-0.384 1.28a26.88 26.88 0 0 1-2.944 6.784 59.392 59.392 0 0 1-12.288 13.056 161.792 161.792 0 0 1-38.528 20.992 403.904 403.904 0 0 1-46.976 15.232 665.6 665.6 0 0 1-25.344 6.272l-26.56 5.44a66.816 66.816 0 0 1-6.784 1.344l-20.224 3.392-13.632 2.304-13.952 1.792c-9.408 1.216-18.816 2.688-28.416 3.712-9.472 1.024-19.264 1.92-28.864 3.072-9.728 1.024-19.52 1.536-29.376 2.368l-14.784 1.28a393.664 393.664 0 0 1-14.848 0.96l-30.016 1.664-30.336 1.024-15.168 0.512-15.168 0.192-30.464 0.32-30.528-0.384-15.36-0.128-15.104-0.512-30.016-1.024-29.952-1.728a373.248 373.248 0 0 1-14.912-0.896 1260.288 1260.288 0 0 0-14.784-1.28c-9.856-0.896-19.712-1.344-29.376-2.496l-28.928-3.072c-9.6-1.024-19.008-2.432-28.416-3.648l-14.016-1.792-13.76-2.368-20.416-3.392c-2.24-0.32-4.48-0.896-6.656-1.344l-26.24-5.312-6.592-1.472-6.336-1.472c-4.096-1.152-8.384-2.112-12.48-3.264a395.072 395.072 0 0 1-46.912-15.36 158.272 158.272 0 0 1-38.528-20.928 60.672 60.672 0 0 1-7.104-6.272 40.96 40.96 0 0 1-5.248-6.784 25.856 25.856 0 0 1-3.008-6.72l-0.384-1.664-0.192-1.728v-0.128 0.256-1.984l0.064-1.728v-0.704l0.128-0.768c0.128-0.704 0.128-1.344 0.32-1.92a37.12 37.12 0 0 1 4.992-10.496c3.008-4.608 7.168-8.896 11.392-12.608 8.64-7.68 18.24-13.824 27.392-19.072 8.448-4.864 17.152-9.344 26.048-13.248a548.48 548.48 0 0 1 38.464-15.808l13.888-5.12-3.712 0.64-10.88 1.984c-4.736 1.024-10.56 2.176-17.408 3.84a372.928 372.928 0 0 0-23.488 6.208 303.104 303.104 0 0 0-28.608 10.048 148.096 148.096 0 0 0-32.32 17.216c-5.504 3.84-11.072 8.32-16.064 14.208a50.176 50.176 0 0 0-11.392 22.72l-0.512 3.52-0.256 1.216-0.064 0.64v1.408l0.064 3.584 0.384 3.584a49.664 49.664 0 0 0 4.288 13.632 72.32 72.32 0 0 0 16.256 21.312c6.336 6.08 13.312 11.2 20.544 15.936 7.296 4.608 14.848 8.896 22.656 12.736a424.448 424.448 0 0 0 62.464 24.448l6.656 1.984 6.528 1.92 27.264 7.168c9.152 2.56 18.56 4.224 27.968 6.4l14.272 3.136 14.4 2.432c38.528 7.168 78.656 12.096 119.552 15.424l30.784 2.304 31.168 1.408 15.68 0.704 15.36 0.192 30.976 0.512 31.168-0.448 15.552-0.256 15.552-0.704 30.976-1.408 30.72-2.304a1198.4 1198.4 0 0 0 119.616-15.424l14.336-2.56 14.4-3.072 14.272-3.072a92.8 92.8 0 0 1 7.04-1.6c2.304-0.512 4.48-1.152 6.784-1.728l26.944-7.104a478.144 478.144 0 0 0 75.712-28.352 327.04 327.04 0 0 0 22.656-12.8c7.232-4.672 14.208-9.856 20.48-15.872 3.328-3.072 6.336-6.336 9.024-9.792a52.352 52.352 0 0 0 11.52-25.216l0.448-4.032v-3.008V882.24zM449.6 79.872c-109.44 18.112-88.448 141.888-65.984 164.48 19.136 19.328 91.584 44.608 53.312 131.84l1.472 0.064-1.536 0.128c-6.656 15.168-16.64 32.064-30.784 51.2 238.4-162.944-79.424-220.928 43.52-347.712zM110.336 471.104c4.8 4.992 9.728 8.512 14.656 11.52 4.736 2.88 9.728 5.504 14.784 7.808 9.856 4.48 19.904 8.128 30.016 11.264 10.112 3.136 20.352 5.952 30.656 8.448 20.736 5.056 41.728 8.896 63.104 12.288 21.312 3.392 42.944 6.144 64.768 8.32 43.712 4.544 88.128 6.976 132.544 8.128a1984 1984 0 0 0 132.544-1.536 1643.904 1643.904 0 0 0 128.128-10.944 830.464 830.464 0 0 0 118.912-23.04 326.4 326.4 0 0 0 27.712-9.152c9.088-3.392 17.92-7.296 26.56-12.288a81.92 81.92 0 0 0 12.8-9.024 40.64 40.64 0 0 0 11.2-14.72 31.552 31.552 0 0 0 1.664-5.76l0.256-1.792c0.128-0.512 0.064-0.64 0.064-0.896l0.064-0.832v-0.512-1.536a26.24 26.24 0 0 0-2.88-10.688 39.424 39.424 0 0 0-11.392-13.056 84.224 84.224 0 0 0-12.032-7.552 141.568 141.568 0 0 0-11.84-5.312 204.544 204.544 0 0 0-22.976-7.552 444.032 444.032 0 0 0-42.624-9.216 613.824 613.824 0 0 0-37.568-5.312c-11.584-1.216-22.4-1.984-32.064-2.816l-13.568-1.216-12.096-0.512-19.008-0.768-16-0.384 15.616 2.688 18.816 3.2 11.968 2.048 13.312 2.688c9.408 1.92 19.84 3.84 31.104 6.272 11.328 2.56 23.488 5.312 36.288 8.704 12.8 3.456 26.24 7.36 40 12.48 6.72 2.56 13.76 5.312 20.352 8.512 6.592 3.2 13.12 6.976 17.856 11.264a17.728 17.728 0 0 1 4.608 5.824l0.192 0.896v0.192L896.768 448c-0.064 0.192-0.064 0.704-0.128 0.64l-0.064-0.192c0.064-0.512-0.128 0.064-0.256 0.256-0.256 0.512-0.96 1.344-1.728 2.304-0.96 0.896-1.92 1.92-3.328 2.816a51.648 51.648 0 0 1-9.216 5.568c-14.08 6.848-31.296 11.84-49.088 15.936-35.84 8.128-74.944 13.312-115.456 17.216a1990.4 1990.4 0 0 1-62.016 4.736 2523.008 2523.008 0 0 1-193.728 2.944 2090.304 2090.304 0 0 1-129.792-6.784 1617.28 1617.28 0 0 1-63.168-6.784 881.92 881.92 0 0 1-60.672-9.984 345.472 345.472 0 0 1-55.488-15.552 118.208 118.208 0 0 1-11.584-5.376 46.72 46.72 0 0 1-8.64-5.952 13.44 13.44 0 0 1-1.856-2.176c-0.32-0.448-0.256-0.32-0.32-0.064V447.36l-0.064 0.384v-0.064-0.192l0.064-0.192v-0.384c0-0.192 0-0.064 0 0v0.192a7.168 7.168 0 0 1 1.408-1.984 33.216 33.216 0 0 1 7.744-6.464c3.328-2.112 6.912-4.096 10.56-5.824 7.488-3.712 15.552-6.784 23.552-9.6 16.128-5.632 32.512-9.92 48.256-13.76 15.872-3.776 31.232-6.848 45.824-9.664 14.016-2.624 27.968-5.056 41.856-7.232a2477.696 2477.696 0 0 1 113.216-14.656l14.208-1.536 0.128-0.192-2.688-0.064-11.776-0.384c-10.368-0.192-25.472-0.576-44.864-0.32-19.328 0.192-42.88 0.64-69.824 2.432-26.88 1.728-57.344 4.352-90.496 9.664a483.2 483.2 0 0 0-51.648 11.008c-8.896 2.432-17.92 5.376-27.2 9.216a129.856 129.856 0 0 0-14.08 6.848 66.752 66.752 0 0 0-14.272 10.752 35.2 35.2 0 0 0-9.152 15.616l-0.448 2.24-0.192 1.088-0.064 0.896-0.064 0.896-0.064 0.448v1.6a30.08 30.08 0 0 0 3.456 13.568 42.688 42.688 0 0 0 6.72 9.408z" fill="#AEAEAE" p-id="10441"></path></svg>